HIERARCHY
ROOT Hips
{
	OFFSET 0.000000 0.000000 0.000000
	CHANNELS 6 Xposition Yposition Zposition Zrotation Yrotation Xrotation 
	JOINT LHipJoint
	{
		OFFSET 0.000000 0.000000 0.000000
		CHANNELS 3 Zrotation Yrotation Xrotation
		JOINT LeftUpLeg
		{
			OFFSET 1.363060 -1.794630 0.839290
			CHANNELS 3 Zrotation Yrotation Xrotation
			JOINT LeftLeg
			{
				OFFSET 2.448110 -6.726130 0.000000
				CHANNELS 3 Zrotation Yrotation Xrotation
				JOINT LeftFoot
				{
					OFFSET 2.562200 -7.039590 0.000000
					CHANNELS 3 Zrotation Yrotation Xrotation
					JOINT LeftToeBase
					{
						OFFSET 0.157640 -0.433110 2.322550
						CHANNELS 3 Zrotation Yrotation Xrotation
						End Site
						{
							OFFSET 0.000000 0.000000 0.000000
						}
					}
				}
			}
		}
	}
	JOINT RHipJoint
	{
		OFFSET 0.000000 0.000000 0.000000
		CHANNELS 3 Zrotation Yrotation Xrotation
		JOINT RightUpLeg
		{
			OFFSET -1.305520 -1.794630 0.839290
			CHANNELS 3 Zrotation Yrotation Xrotation
			JOINT RightLeg
			{
				OFFSET -2.542530 -6.985550 0.000000
				CHANNELS 3 Zrotation Yrotation Xrotation
				JOINT RightFoot
				{
					OFFSET -2.568260 -7.056230 0.000000
					CHANNELS 3 Zrotation Yrotation Xrotation
					JOINT RightToeBase
					{
						OFFSET -0.164730 -0.452590 2.363150
						CHANNELS 3 Zrotation Yrotation Xrotation
						End Site
						{
							OFFSET 0.000000 0.000000 0.000000
						}
					}
				}
			}
		}
	}
	JOINT LowerBack
	{
		OFFSET 0.000000 0.000000 0.000000
		CHANNELS 3 Zrotation Yrotation Xrotation
		JOINT Spine
		{
			OFFSET 0.028270 2.035590 -0.193380
			CHANNELS 3 Zrotation Yrotation Xrotation
			JOINT Spine1
			{
				OFFSET 0.056720 2.048850 -0.042750
				CHANNELS 3 Zrotation Yrotation Xrotation
				JOINT Neck
				{
					OFFSET 0.000000 0.000000 0.000000
					CHANNELS 3 Zrotation Yrotation Xrotation
					JOINT Neck1
					{
						OFFSET -0.054170 1.746240 0.172020
						CHANNELS 3 Zrotation Yrotation Xrotation
						JOINT Head
						{
							OFFSET 0.104070 1.761360 -0.123970
							CHANNELS 3 Zrotation Yrotation Xrotation
							End Site
							{
								OFFSET 0.000000 0.000000 0.000000
							}
						}
					}
				}
				JOINT LeftShoulder
				{
					OFFSET 0.000000 0.000000 0.000000
					CHANNELS 3 Zrotation Yrotation Xrotation
					JOINT LeftArm
					{
						OFFSET 3.362410 1.200890 -0.311210
						CHANNELS 3 Zrotation Yrotation Xrotation
						JOINT LeftForeArm
						{
							OFFSET 4.983000 -0.000000 -0.000000
							CHANNELS 3 Zrotation Yrotation Xrotation
							JOINT LeftHand
							{
								OFFSET 3.483560 -0.000000 -0.000000
								CHANNELS 3 Zrotation Yrotation Xrotation
								JOINT LeftFingerBase
								{
									OFFSET 0.000000 0.000000 0.000000
									CHANNELS 3 Zrotation Yrotation Xrotation
									JOINT LeftHandIndex1
									{
										OFFSET 0.715260 -0.000000 -0.000000
										CHANNELS 3 Zrotation Yrotation Xrotation
										End Site
										{
											OFFSET 0.000000 0.000000 0.000000
										}
									}
								}
								JOINT LThumb
								{
									OFFSET 0.000000 0.000000 0.000000
									CHANNELS 3 Zrotation Yrotation Xrotation
									End Site
									{
										OFFSET 0.000000 0.000000 0.000000
									}
								}
							}
						}
					}
				}
				JOINT RightShoulder
				{
					OFFSET 0.000000 0.000000 0.000000
					CHANNELS 3 Zrotation Yrotation Xrotation
					JOINT RightArm
					{
						OFFSET -3.136600 1.374050 -0.404650
						CHANNELS 3 Zrotation Yrotation Xrotation
						JOINT RightForeArm
						{
							OFFSET -5.241900 -0.000000 -0.000000
							CHANNELS 3 Zrotation Yrotation Xrotation
							JOINT RightHand
							{
								OFFSET -3.444170 -0.000000 -0.000000
								CHANNELS 3 Zrotation Yrotation Xrotation
								JOINT RightFingerBase
								{
									OFFSET 0.000000 0.000000 0.000000
									CHANNELS 3 Zrotation Yrotation Xrotation
									JOINT RightHandIndex1
									{
										OFFSET -0.622530 -0.000000 -0.000000
										CHANNELS 3 Zrotation Yrotation Xrotation
										End Site
										{
											OFFSET 0.000000 0.000000 0.000000
										}
									}
								}
								JOINT RThumb
								{
									OFFSET 0.000000 0.000000 0.000000
									CHANNELS 3 Zrotation Yrotation Xrotation
									End Site
									{
										OFFSET 0.000000 0.000000 0.000000
									}
								}
							}
						}
					}
				}
			}
		}
	}
}
MOTION
Frames: 4
Frame Time: 0.008333
2.686416 17.036860 0.997731 -153.416426 -80.277925 164.642448 -10.426551 -0.232783 4.582522 -0.687910 -3.456454 -43.565194 -0.050706 1.222955 37.350342 2.760771 14.352445 -5.589712 1.033000 -0.000000 -26.685700 7.075121 -2.263985 3.802814 20.644756 4.603446 -0.830834 4.345499 2.613830 -3.083630 0.004170 4.124349 -11.569169 -179.993500 0.000000 -14.788299 2.125792 1.647395 -9.738492 -0.897485 0.934757 -4.756824 -8.022033 0.896283 0.512492 12.141677 -5.904134 -6.471454 -4.104692 -0.346294 0.358828 0.000000 0.000000 0.000000 -3.766945 16.257196 1.191097 -53.375525 9.663269 11.268950 -3.517774 -26.598020 0.004647 5.528566 2.652294 0.135669 -0.111811 -0.092370 -0.000000 0.000000 0.000000 0.000000 0.000000 0.000000 0.000000 19.411682 1.382579 -1.490620 62.650807 13.642949 14.575875 0.768012 69.707966 -0.014214 -3.904337 5.445233 -0.197941 0.051088 -0.329950 -0.000000 0.000000 0.000000 0.000000 0.000000 0.000000 0.000000 
2.547003 17.016508 0.989354 -153.003979 -80.493991 164.241175 -10.382813 -0.269623 4.668644 -0.911681 -3.460662 -44.027820 -0.129147 1.096162 35.051504 2.577556 13.475760 -4.053093 1.369700 0.000000 -28.054899 7.081482 -2.307840 3.661990 20.624392 4.209265 -0.241325 4.336091 2.616484 -3.097441 -0.008959 4.284076 -12.021701 -179.996200 -0.000000 -15.281900 2.034795 1.844255 -9.680057 -0.937092 1.143378 -4.744047 -8.038181 1.109659 0.548763 12.169060 -5.663132 -6.524472 -4.066506 -0.342270 0.340999 0.000000 0.000000 0.000000 -3.705731 17.048573 1.202332 -52.717580 9.570105 10.569098 -3.569849 -26.717819 0.004838 5.582254 2.586837 0.133885 -0.116621 -0.094034 -0.000000 0.000000 0.000000 0.000000 0.000000 0.000000 0.000000 19.235664 1.810141 -1.513227 62.481609 14.262696 14.802359 0.749591 70.347642 -0.014604 -3.836973 5.375881 -0.192337 0.048438 -0.336989 -0.000000 0.000000 0.000000 0.000000 0.000000 0.000000 0.000000 
2.406417 16.994779 0.981643 -152.509896 -80.731981 163.734688 -10.348321 -0.288449 4.739760 -1.208336 -3.402991 -44.408666 -0.228937 0.971281 32.663079 2.363800 12.480309 -2.436745 1.659000 -0.000000 -29.510800 7.089700 -2.355744 3.512620 20.600820 3.769005 0.368716 4.327571 2.615594 -3.099954 -0.019624 4.460390 -12.473139 179.997300 -0.000001 -15.683300 1.950791 2.033472 -9.602490 -0.974909 1.344585 -4.728352 -8.054992 1.315894 0.582052 12.195587 -5.442651 -6.576751 -4.030419 -0.338428 0.323433 0.000000 0.000000 0.000000 -3.636484 17.793355 1.214331 -52.105138 9.501623 9.759507 -3.619458 -26.876708 0.005029 5.632409 2.509450 0.131402 -0.121364 -0.095327 -0.000000 0.000000 0.000000 0.000000 0.000000 0.000000 0.000000 19.068830 2.209807 -1.533594 62.307136 14.867871 14.982204 0.732526 70.983191 -0.015019 -3.781468 5.328575 -0.188034 0.045926 -0.344182 -0.000000 0.000000 0.000000 0.000000 0.000000 0.000000 0.000000 
2.264881 16.971667 0.974446 -151.959619 -80.990407 163.138993 -10.321629 -0.291467 4.794183 -1.583082 -3.290723 -44.696931 -0.354744 0.848366 30.207968 2.123193 11.371195 -0.810994 1.874000 -0.000000 -31.012000 7.101420 -2.407478 3.349881 20.566894 3.268266 1.000949 4.319895 2.608598 -3.077563 -0.026333 4.663023 -12.920045 179.986300 0.000000 -15.932600 1.868992 2.215239 -9.498906 -1.012003 1.539355 -4.708305 -8.073096 1.515981 0.612747 12.222629 -5.242187 -6.627995 -3.996644 -0.334772 0.306104 0.000000 0.000000 0.000000 -3.556427 18.496396 1.227136 -51.535782 9.453205 8.865018 -3.665756 -27.078357 0.005196 5.673514 2.427433 0.128318 -0.126059 -0.096248 -0.000000 0.000000 0.000000 0.000000 0.000000 0.000000 0.000000 18.914650 2.582765 -1.552179 62.130294 15.458861 15.117041 0.716908 71.612430 -0.015447 -3.732997 5.306080 -0.185030 0.043476 -0.351567 -0.000000 0.000000 0.000000 0.000000 0.000000 0.000000 0.000000 
